<?xml version="1.0" encoding="utf-8"?>
<!-- Generator: Adobe Illustrator 19.0.0, SVG Export Plug-In . SVG Version: 6.00 Build 0)  -->
<svg version="1.1" id="图层_1" xmlns="http://www.w3.org/2000/svg" xmlns:xlink="http://www.w3.org/1999/xlink" x="0px" y="0px"
	 viewBox="194 -104 1000 1000" style="enable-background:new 194 -104 1000 1000;" xml:space="preserve">
<g>
	<path d="M694-94c-270.6,0-490,219.4-490,490s219.4,490,490,490s490-219.4,490-490S964.6-94,694-94z M836.1,158.9
		c47.9,31.9,95,79,110.2,142.1L811.4,435.9C811.4,435.9,827.3,190.8,836.1,158.9z M694.5,120.6c38.3,0,78.3,6.4,109.9,23.2v198
		c0,0-157.1-190-181.9-214.8C647.3,127,669.8,120.6,694.5,120.6z M599.8,135.7l133.3,142.9c0,0-242.7-16-274.6-24.7
		C490.4,206,537.5,158.9,599.8,135.7z M427.4,467.8c0-24.8-8.8-46.7-8.8-71.5c0-38.3,8.8-79.4,24-109.8h197.2
		C639.7,286.5,449.7,443.1,427.4,467.8z M552.7,631.5c-46.3-31.9-94.2-79-119-141.3l142.9-133.3
		C576.6,356.9,560.7,599.6,552.7,631.5z M695.3,671.4c-40.7,0-79-8.8-110.5-24V450.3c0,0,157,181.2,181,212.4
		C741.8,662.6,718.4,671.4,695.3,671.4z M789,647.5L654.1,513.4c0,0,236.3,16,277,23.9C899.2,583.6,852.1,631.5,789,647.5z
		 M946.3,506.2h-198c0,0,182.8-157.3,214.8-181.2c0,24,6.4,47.1,6.4,70.3C969.4,435.9,963,474.7,946.3,506.2z"/>
</g>
</svg>
