<?xml version="1.0" encoding="utf-8"?>
<!-- Svg Vector Icons : http://www.sfont.cn -->
<!DOCTYPE svg PUBLIC "-//W3C//DTD SVG 1.1//EN" "http://www.w3.org/Graphics/SVG/1.1/DTD/svg11.dtd">
<svg version="1.1" xmlns="http://www.w3.org/2000/svg" xmlns:xlink="http://www.w3.org/1999/xlink" x="0px" y="0px" viewBox="0 0 1000 1000" enable-background="new 0 0 1000 1000" xml:space="preserve">
<metadata> Svg Vector Icons : http://www.sfont.cn </metadata>
<g><path d="M500,10C229.4,10,10,229.4,10,500c0,270.6,219.4,490,490,490c270.6,0,490-219.4,490-490C990,229.4,770.6,10,500,10z M642.1,262.9c47.9,31.9,95,79,110.2,142.1L617.4,539.9C617.4,539.9,633.3,294.8,642.1,262.9z M500.5,224.6c38.3,0,78.3,6.4,109.9,23.2v198c0,0-157.1-190-181.9-214.8C453.3,231,475.8,224.6,500.5,224.6z M405.8,239.7l133.3,142.9c0,0-242.7-16-274.6-24.7C296.4,310,343.5,262.9,405.8,239.7z M233.4,571.8c0-24.8-8.8-46.7-8.8-71.5c0-38.3,8.8-79.4,24-109.8h197.2C445.7,390.5,255.7,547.1,233.4,571.8z M358.7,735.5c-46.3-31.9-94.2-79-119-141.3l142.9-133.3C382.6,460.9,366.7,703.6,358.7,735.5z M501.3,775.4c-40.7,0-79-8.8-110.5-24V554.3c0,0,157,181.2,181,212.4C547.8,766.6,524.4,775.4,501.3,775.4z M595,751.5L460.1,617.4c0,0,236.3,16,277,23.9C705.2,687.6,658.1,735.5,595,751.5z M752.3,610.2h-198c0,0,182.8-157.3,214.8-181.2c0,24,6.4,47.1,6.4,70.3C775.4,539.9,769,578.7,752.3,610.2z"/></g>
</svg>